<?xml version="1.0" encoding="utf-8"?>
<!-- Generator: Adobe Illustrator 28.0.0, SVG Export Plug-In . SVG Version: 6.00 Build 0)  -->
<svg version="1.1" id="Layer_2_00000106138494042304898440000016814039707834524310_"
	 xmlns="http://www.w3.org/2000/svg" xmlns:xlink="http://www.w3.org/1999/xlink" x="0px" y="0px" viewBox="0 0 120 120"
	 style="enable-background:new 0 0 120 120;" xml:space="preserve">
<style type="text/css">
	.st0{fill:none;}
	.st1{fill:#1A1A1A;}
</style>
<g id="MSCOM_Icons">
	<g id="Link-List-Icons-Xbox-Games-Consoles">
		<g id="Bounding_Box">
			<rect class="st0" width="120" height="120"/>
		</g>
		<g id="Xbox_Orb">
			<path class="st1" d="M47.7,40c-1.3,1.5-2.8,3.4-4.5,5.7c-1.7,2.2-3.4,4.6-5.1,7.2c-1.7,2.6-3.5,5.3-5.1,8.1s-3.2,5.6-4.5,8.3
				s-2.4,5.4-3.2,7.9S24.1,82,24.1,84c0,1.1,0.1,2.2,0.4,3.1l0,0.2c-0.1,0-0.2,0-0.3-0.1c-1.5-1.9-2.8-3.9-4-6.1
				c-1.1-2.2-2.1-4.4-2.9-6.8c-0.8-2.3-1.4-4.7-1.8-7.1C15.2,64.8,15,62.4,15,60c0-2.9,0.3-5.9,0.9-8.8c0.6-2.9,1.4-5.8,2.6-8.6
				s2.5-5.4,4.2-7.9c1.7-2.5,3.6-4.8,5.7-6.8c0.1-0.1,0.3-0.2,0.7-0.2c0.3,0,0.5-0.1,0.6-0.1c0.9,0,1.9,0.2,3,0.7
				c1.1,0.4,2.2,1,3.3,1.7c1.1,0.7,2.3,1.5,3.4,2.4c1.1,0.9,2.2,1.8,3.2,2.7c1,0.9,2,1.8,2.8,2.6s1.6,1.5,2.2,2.1l0,0.2L47.7,40
				L47.7,40L47.7,40z M60.1,51.2c1.1,0.8,2.3,1.8,3.8,3.1c1.4,1.2,3,2.7,4.6,4.2c1.6,1.5,3.3,3.2,5.1,5c1.7,1.8,3.4,3.6,5.1,5.5
				c1.7,1.9,3.2,3.8,4.7,5.8c1.5,1.9,2.8,3.8,3.9,5.7s2,3.6,2.6,5.3c0.6,1.7,1,3.2,1,4.6c0,0.7-0.1,1.3-0.3,1.9
				c-0.2,0.6-0.5,1.2-1,1.7c-0.6,0.6-1.3,1.2-2.1,1.8c-0.8,0.6-1.6,1.1-2.3,1.6c-3.8,2.5-7.8,4.4-12,5.7s-8.7,2-13.2,2
				s-8.9-0.7-13.2-2c-4.3-1.3-8.3-3.2-12-5.7c-0.7-0.5-1.5-1-2.3-1.6c-0.8-0.6-1.5-1.2-2.1-1.8c-0.5-0.5-0.8-1.1-1-1.7
				s-0.3-1.2-0.3-1.9c0-1.4,0.3-2.9,1-4.6s1.5-3.4,2.6-5.3c1.1-1.8,2.4-3.7,3.9-5.7c1.5-1.9,3-3.8,4.7-5.8c1.7-1.9,3.3-3.8,5.1-5.5
				c1.7-1.8,3.4-3.5,5.1-5c1.6-1.5,3.2-3,4.6-4.2s2.7-2.3,3.8-3.1l0.1-0.1L60.1,51.2L60.1,51.2L60.1,51.2z M36.4,21.9l0.1-0.2
				c3.7-2.2,7.4-3.9,11.3-5S55.7,15,60,15s8.3,0.6,12.2,1.6c3.8,1.1,7.6,2.7,11.2,5l0.1,0.2l-0.2,0c-0.9-0.2-1.9-0.3-3-0.3
				c-1.6,0-3.3,0.2-5.1,0.6s-3.5,0.9-5.3,1.6s-3.5,1.4-5.1,2.2c-1.7,0.8-3.2,1.6-4.7,2.4l-0.1,0l-0.1,0c-1.4-0.8-2.9-1.6-4.6-2.4
				c-1.7-0.8-3.4-1.5-5.1-2.2c-1.8-0.6-3.5-1.2-5.3-1.6c-1.8-0.4-3.5-0.6-5.1-0.6c-0.5,0-1,0-1.6,0.1c-0.5,0-1,0.1-1.6,0.3
				L36.4,21.9L36.4,21.9L36.4,21.9z M90.2,27.7c0.1,0,0.4,0,0.7,0.1c0.3,0,0.5,0.1,0.7,0.2c2.1,2,4,4.3,5.7,6.8
				c1.7,2.5,3.1,5.1,4.2,7.9s2,5.6,2.6,8.6s0.9,5.9,0.9,8.8c0,2.4-0.2,4.8-0.6,7.2c-0.4,2.4-1,4.8-1.8,7.1s-1.7,4.6-2.9,6.8
				s-2.5,4.2-4,6.1c-0.1,0.1-0.2,0.1-0.3,0.1l-0.1-0.2c0.3-1,0.4-2,0.4-3.1c0-2-0.4-4.3-1.2-6.8c-0.8-2.5-1.9-5.2-3.2-7.9
				c-1.3-2.7-2.8-5.5-4.5-8.3s-3.4-5.5-5.1-8.1s-3.5-5-5.1-7.2c-1.7-2.2-3.2-4.1-4.5-5.7l-0.1-0.1c0,0,0.1,0,0.1-0.1c0,0,0,0,0-0.1
				c0.6-0.6,1.3-1.2,2.1-2.1s1.8-1.7,2.8-2.6c1-0.9,2.1-1.8,3.2-2.7c1.1-0.9,2.2-1.7,3.4-2.4c1.1-0.7,2.2-1.3,3.3-1.7
				C88.3,27.9,89.3,27.6,90.2,27.7L90.2,27.7z"/>
		</g>
	</g>
</g>
</svg>
